<svg xmlns="http://www.w3.org/2000/svg" xmlns:xlink="http://www.w3.org/1999/xlink" width="124" height="123" viewBox="0 0 124 123"><defs><clipPath id="clip-Custom_Size_13"><rect width="124" height="123"/></clipPath></defs><g id="Custom_Size_13" clip-path="url(#clip-Custom_Size_13)" data-name="Custom Size – 13"><g id="Ellipse_11" fill="none" stroke="#fff" stroke-width="12" data-name="Ellipse 11" transform="translate(0)"><ellipse cx="62" cy="61.5" stroke="none" rx="62" ry="61.5"/><ellipse cx="62" cy="61.5" fill="none" rx="56" ry="55.5"/></g><g id="triangle-musical-instrument-svgrepo-com" transform="translate(24.871 -15.364)"><g id="Group_3" data-name="Group 3" transform="translate(0 46.476)"><g id="Group_2" data-name="Group 2"><path id="Path_2" fill="#fff" d="M54.723,71.566l.705-.706L73.609,52.677a2.217,2.217,0,1,0-3.134-3.136l-17.34,17.34h0L51.02,69l0,0L40.005,49.925a6.817,6.817,0,0,0-5.044-3.388,7.094,7.094,0,0,0-.93-.061,6.828,6.828,0,0,0-5.974,3.449L.936,96.9h0a6.9,6.9,0,0,0,5.974,10.353H61.153a6.881,6.881,0,0,0,5.974-10.344L53.312,72.976h0ZM60.892,99.1a1.485,1.485,0,0,1,.193.745,1.559,1.559,0,0,1-.193.756,1.5,1.5,0,0,1-1.252.778H8.422a1.522,1.522,0,0,1-1.445-1.523,1.483,1.483,0,0,1,.193-.732L32.779,54.755a1.444,1.444,0,0,1,2.5-.008l10.976,19.01h0l-7.752,7.751h0A7.013,7.013,0,0,1,41.6,84.681l.1-.1,6.85-6.85Z" data-name="Path 2" transform="translate(0 -46.476)"/></g></g><g id="Group_5" data-name="Group 5" transform="translate(30.214 82.658)"><g id="Group_4" data-name="Group 4"><path id="Path_3" fill="#fff" d="M217,297.436a5.071,5.071,0,0,0-3.594-1.489c-.074,0-.147,0-.221.005l-.088.005a5.109,5.109,0,0,0-.744.1,5.057,5.057,0,0,0-2.531,1.368l-.01.009a5.14,5.14,0,0,0-.506.589q-.075.1-.145.209a5.083,5.083,0,0,0,3.6,7.838q.166.021.333.031c.1.006.206.01.309.01a5.115,5.115,0,0,0,1.21-.145A5.083,5.083,0,0,0,217,297.436Z" data-name="Path 3" transform="translate(-208.318 -295.947)"/></g></g></g></g></svg>