<svg xmlns="http://www.w3.org/2000/svg" xmlns:xlink="http://www.w3.org/1999/xlink" width="124" height="123" viewBox="0 0 124 123"><defs><clipPath id="clip-Custom_Size_11"><rect width="124" height="123"/></clipPath></defs><g id="Custom_Size_11" clip-path="url(#clip-Custom_Size_11)" data-name="Custom Size – 11"><g id="Ellipse_11" fill="none" stroke="#fff" stroke-width="12" data-name="Ellipse 11" transform="translate(0)"><ellipse cx="62" cy="61.5" stroke="none" rx="62" ry="61.5"/><ellipse cx="62" cy="61.5" fill="none" rx="56" ry="55.5"/></g><path id="Icon_awesome-film" fill="#fff" d="M66.384,4.5H65.3V7.221a1.637,1.637,0,0,1-1.632,1.632H58.222A1.637,1.637,0,0,1,56.59,7.221V4.5H13.059V7.221a1.637,1.637,0,0,1-1.632,1.632H5.985A1.637,1.637,0,0,1,4.353,7.221V4.5H3.265A3.257,3.257,0,0,0,0,7.765V53.472a3.257,3.257,0,0,0,3.265,3.265H4.353V54.016a1.637,1.637,0,0,1,1.632-1.632h5.441a1.637,1.637,0,0,1,1.632,1.632v2.721H56.59V54.016a1.637,1.637,0,0,1,1.632-1.632h5.441A1.637,1.637,0,0,1,65.3,54.016v2.721h1.088a3.257,3.257,0,0,0,3.265-3.265V7.765A3.257,3.257,0,0,0,66.384,4.5ZM13.059,46.4a1.637,1.637,0,0,1-1.632,1.632H5.985A1.637,1.637,0,0,1,4.353,46.4V40.957a1.637,1.637,0,0,1,1.632-1.632h5.441a1.637,1.637,0,0,1,1.632,1.632Zm0-13.059a1.637,1.637,0,0,1-1.632,1.632H5.985a1.637,1.637,0,0,1-1.632-1.632V27.9a1.637,1.637,0,0,1,1.632-1.632h5.441A1.637,1.637,0,0,1,13.059,27.9Zm0-13.059a1.637,1.637,0,0,1-1.632,1.632H5.985A1.637,1.637,0,0,1,4.353,20.28V14.839a1.637,1.637,0,0,1,1.632-1.632h5.441a1.637,1.637,0,0,1,1.632,1.632Zm37,28.295a1.637,1.637,0,0,1-1.632,1.632H21.221a1.637,1.637,0,0,1-1.632-1.632V35.516a1.637,1.637,0,0,1,1.632-1.632H48.428a1.637,1.637,0,0,1,1.632,1.632Zm0-22.854a1.637,1.637,0,0,1-1.632,1.632H21.221a1.637,1.637,0,0,1-1.632-1.632V12.662a1.637,1.637,0,0,1,1.632-1.632H48.428a1.637,1.637,0,0,1,1.632,1.632ZM65.3,46.4a1.637,1.637,0,0,1-1.632,1.632H58.222A1.637,1.637,0,0,1,56.59,46.4V40.957a1.637,1.637,0,0,1,1.632-1.632h5.441A1.637,1.637,0,0,1,65.3,40.957Zm0-13.059a1.637,1.637,0,0,1-1.632,1.632H58.222a1.637,1.637,0,0,1-1.632-1.632V27.9a1.637,1.637,0,0,1,1.632-1.632h5.441A1.637,1.637,0,0,1,65.3,27.9Zm0-13.059a1.637,1.637,0,0,1-1.632,1.632H58.222A1.637,1.637,0,0,1,56.59,20.28V14.839a1.637,1.637,0,0,1,1.632-1.632h5.441A1.637,1.637,0,0,1,65.3,14.839Z" data-name="Icon awesome-film" transform="translate(27.175 30.882)"/></g></svg>