<svg xmlns="http://www.w3.org/2000/svg" xmlns:xlink="http://www.w3.org/1999/xlink" width="124" height="123" viewBox="0 0 124 123">
  <defs>
    <clipPath id="clip-Custom_Size_16">
      <rect width="124" height="123"/>
    </clipPath>
  </defs>
  <g id="Custom_Size_16" data-name="Custom Size – 16" clip-path="url(#clip-Custom_Size_16)">
    <g id="Ellipse_11" data-name="Ellipse 11" transform="translate(0)" fill="none" stroke="#fff" stroke-width="12">
      <ellipse cx="62" cy="61.5" rx="62" ry="61.5" stroke="none"/>
      <ellipse cx="62" cy="61.5" rx="56" ry="55.5" fill="none"/>
    </g>
    <path id="Icon_metro-spinner1" data-name="Icon metro-spinner1" d="M76.357,38.824a37.186,37.186,0,0,0-11.423-26.16A36.916,36.916,0,0,0,52.824,4.908a36.506,36.506,0,0,0-27.874.542A35.919,35.919,0,0,0,5.943,25.224,35.332,35.332,0,0,0,6.486,52.2,34.744,34.744,0,0,0,25.624,70.57,34.157,34.157,0,0,0,51.7,70.027a33.569,33.569,0,0,0,17.736-18.5A32.808,32.808,0,0,0,71.383,43.9c.091.005.183.009.276.009a4.7,4.7,0,0,0,4.7-4.7c0-.132-.007-.262-.017-.391h.017ZM68.893,51.3A32.4,32.4,0,0,1,51.024,68.4a31.809,31.809,0,0,1-24.275-.543A31.22,31.22,0,0,1,10.283,50.624a30.633,30.633,0,0,1,.542-23.376,30.164,30.164,0,0,1,6.771-9.6,29.859,29.859,0,0,1,9.827-6.229,29.441,29.441,0,0,1,11.35-1.956,28.963,28.963,0,0,1,20.347,9.015A28.685,28.685,0,0,1,65.1,27.923a28.267,28.267,0,0,1,1.866,10.9h.017q-.017.2-.017.391a4.7,4.7,0,0,0,4.19,4.67A32.4,32.4,0,0,1,68.893,51.3Z" transform="translate(22.056 23.85)" fill="#fff"/>
  </g>
</svg>
