<svg xmlns="http://www.w3.org/2000/svg" xmlns:xlink="http://www.w3.org/1999/xlink" width="2745" height="1000" viewBox="0 0 2745 1000"><defs><clipPath id="clip-Custom_Size_5"><rect width="2745" height="1000"/></clipPath></defs><g id="Custom_Size_5" clip-path="url(#clip-Custom_Size_5)" data-name="Custom Size – 5"><text id="beattosetto" fill="#f6a" font-family="Comfortaa-Bold, Comfortaa" font-size="258" font-weight="700" transform="translate(1039 584)"><tspan x="0" y="0">beattosetto</tspan></text><rect id="Custom_Size_1" width="1000" height="1000" fill="none" data-name="Custom Size – 1"/><g id="Ellipse_26" fill="none" stroke="#f6a" stroke-width="12" data-name="Ellipse 26" transform="translate(138.577 159.5)"><ellipse cx="62" cy="61.5" stroke="none" rx="62" ry="61.5"/><ellipse cx="62" cy="61.5" fill="none" rx="56" ry="55.5"/></g><g id="Ellipse_27" fill="none" stroke="#f6a" stroke-width="12" data-name="Ellipse 27" transform="translate(138.577 345.5)"><ellipse cx="62" cy="61.5" stroke="none" rx="62" ry="61.5"/><ellipse cx="62" cy="61.5" fill="none" rx="56" ry="55.5"/></g><g id="Ellipse_28" fill="none" stroke="#f6a" stroke-width="12" data-name="Ellipse 28" transform="translate(138.577 531.5)"><ellipse cx="62" cy="61.5" stroke="none" rx="62" ry="61.5"/><ellipse cx="62" cy="61.5" fill="none" rx="56" ry="55.5"/></g><g id="Ellipse_29" fill="none" stroke="#f6a" stroke-width="12" data-name="Ellipse 29" transform="translate(138.577 717.5)"><ellipse cx="62" cy="61.5" stroke="none" rx="62" ry="61.5"/><ellipse cx="62" cy="61.5" fill="none" rx="56" ry="55.5"/></g><line id="Line_13" x2="502.346" fill="none" stroke="#f6a" stroke-linecap="round" stroke-width="78" data-name="Line 13" transform="translate(359.077 220)"/><line id="Line_14" x2="502.346" fill="none" stroke="#f6a" stroke-linecap="round" stroke-width="78" data-name="Line 14" transform="translate(359.077 407)"/><line id="Line_15" x2="502.346" fill="none" stroke="#f6a" stroke-linecap="round" stroke-width="78" data-name="Line 15" transform="translate(359.077 594)"/><line id="Line_16" x2="502.346" fill="none" stroke="#f6a" stroke-linecap="round" stroke-width="78" data-name="Line 16" transform="translate(359.077 781)"/><circle id="Ellipse_30" cx="37.5" cy="37.5" r="37.5" fill="#f6a" data-name="Ellipse 30" transform="translate(163.577 182.5)"/><line id="Line_17" y2="73" fill="none" stroke="#f6a" stroke-width="12" data-name="Line 17" transform="translate(201.077 370.5)"/><circle id="Ellipse_31" cx="11.5" cy="11.5" r="11.5" fill="#f6a" data-name="Ellipse 31" transform="translate(177.577 558.5)"/><circle id="Ellipse_32" cx="11.5" cy="11.5" r="11.5" fill="#f6a" data-name="Ellipse 32" transform="translate(209.577 581.5)"/><circle id="Ellipse_33" cx="11.5" cy="11.5" r="11.5" fill="#f6a" data-name="Ellipse 33" transform="translate(177.577 604.5)"/><line id="Line_18" y2="68" fill="none" stroke="#f6a" stroke-linecap="round" stroke-width="10" data-name="Line 18" transform="translate(200.577 745)"/><line id="Line_19" y2="37" fill="none" stroke="#f6a" stroke-linecap="round" stroke-width="10" data-name="Line 19" transform="translate(222.577 760.5)"/><line id="Line_20" y2="37" fill="none" stroke="#f6a" stroke-linecap="round" stroke-width="10" data-name="Line 20" transform="translate(178.577 759.5)"/><g id="Ellipse_34" fill="none" stroke="#f6a" stroke-width="12" data-name="Ellipse 34" transform="translate(161.077 365.75)"><circle cx="40" cy="40" r="40" stroke="none"/><circle cx="40" cy="40" r="34" fill="none"/></g></g></svg>